# xmcd CD database file
#
# Track frame offsets:
#	150
#	12940
#	26104
#	38674
#	50334
#	61028
#	73378
#	87495
#	98176
#	109493
#
# Disc length: 1625 seconds
#
# Revision: 1
# Processed by: cddbd v1.5.2PL0 Copyright (c) Steve Scherf et al.
# Submitted via: CDex 1.70beta2
#
DISCID=8606570a
DTITLE=Larry Butler and Willie Nelson - Memories of Hank Williams Sr. Volume 2
DYEAR=2001
DGENRE=Country
TTITLE0=Mind Your Own Business
TTITLE1=Take These Chains From My Heart
TTITLE2=Why Should We Try Anymore
TTITLE3=My Bucket's Got A Hole In It
TTITLE4=I Can't Help It
TTITLE5=Jambalaya
TTITLE6=I Told A lie To My Heart
TTITLE7=Window Shopping
TTITLE8=My Son Calls Another Man Daddy
TTITLE9=You Win Again
EXTD=YEAR: 2001
EXTT0=
EXTT1=
EXTT2=
EXTT3=
EXTT4=
EXTT5=
EXTT6=
EXTT7=
EXTT8=
EXTT9=
PLAYORDER=
